<?xml version="1.0" encoding="UTF-8"?>
<!DOCTYPE svg PUBLIC "-//W3C//DTD SVG 1.1//EN" "http://www.w3.org/Graphics/SVG/1.1/DTD/svg11.dtd">
<!-- Creator: CorelDRAW -->
<svg xmlns="http://www.w3.org/2000/svg" xml:space="preserve" width="169.884mm" height="302.015mm" version="1.1" style="shape-rendering:geometricPrecision; text-rendering:geometricPrecision; image-rendering:optimizeQuality; fill-rule:evenodd; clip-rule:evenodd"
viewBox="0 0 16988.4 30201.5"
 xmlns:xlink="http://www.w3.org/1999/xlink"
 xmlns:xodm="http://www.corel.com/coreldraw/odm/2003">
 <defs>
  <style type="text/css">
   <![CDATA[
    .fil5 {fill:none}
    .fil4 {fill:url(#id1)}
    .fil2 {fill:url(#id2)}
    .fil0 {fill:url(#id3)}
    .fil1 {fill:url(#id4)}
    .fil3 {fill:url(#id5)}
   ]]>
  </style>
   <clipPath id="id0">
    <path d="M-6.31 3.77l16988.36 0 0 30201.52 -16988.36 0 0 -30201.52z"/>
   </clipPath>
  <linearGradient id="id1" gradientUnits="userSpaceOnUse" x1="20033.81" y1="-4242.33" x2="8068.27" y2="5074.3">
   <stop offset="0" style="stop-opacity:1; stop-color:#7A14D5"/>
   <stop offset="1" style="stop-opacity:1; stop-color:#B022DD"/>
  </linearGradient>
  <linearGradient id="id2" gradientUnits="userSpaceOnUse" xlink:href="#id1" x1="27169.54" y1="34451.39" x2="15204" y2="25134.76">
  </linearGradient>
  <linearGradient id="id3" gradientUnits="userSpaceOnUse" xlink:href="#id1" x1="-603.18" y1="19640.31" x2="17578.92" y2="10568.75">
  </linearGradient>
  <linearGradient id="id4" gradientUnits="userSpaceOnUse" xlink:href="#id1" x1="15436.67" y1="25173.71" x2="7135.18" y2="26634.82">
  </linearGradient>
  <linearGradient id="id5" gradientUnits="userSpaceOnUse" xlink:href="#id1" x1="8300.94" y1="5035.35" x2="-0.55" y2="3574.24">
  </linearGradient>
 </defs>
 <g id="Camada_x0020_1">
  <metadata id="CorelCorpID_0Corel-Layer"/>
  <polygon class="fil0" points="-6.31,3.77 16982.05,3.77 16982.05,30205.29 -6.31,30205.29 "/>
  <g style="clip-path:url(#id0)">
   <g id="_2009952401440">
    <path id="_1" class="fil1" d="M13997.49 21603.24l1500.29 2598.55 -3466.15 6003.5c-1652.77,0 -3307.34,-0.85 -4957.56,-1.27l4230.25 -7324.99c468.6,-811.4 1273.05,-1275.79 2210.03,-1275.79 161.03,0 322.1,0 483.14,0z"/>
    <path class="fil2" d="M15497.78 24201.79l-1500.29 -2598.55c1161,0 2321.96,0 3482.95,0 936.98,0 1742.93,463.57 2210.03,1275.79l8685.57 15102.61 -4957.56 1.27 -7920.7 -13781.12z"/>
    <g>
     <path class="fil3" d="M6861.76 8605.82l1500.29 -2598.55 -3466.15 -6003.5c-1652.77,0 -3307.34,0.85 -4957.56,1.27l4230.25 7324.99c468.6,811.4 1273.05,1275.79 2210.03,1275.79 161.03,0 322.1,0 483.14,0z"/>
     <path class="fil4" d="M8362.05 6007.27l-1500.29 2598.55c1161,0 2321.96,0 3482.95,0 936.98,0 1742.93,-463.57 2210.03,-1275.79l8685.57 -15102.61 -4957.56 -1.27 -7920.7 13781.12z"/>
    </g>
   </g>
  </g>
  <polygon class="fil5" points="-6.31,3.77 16982.05,3.77 16982.05,30205.29 -6.31,30205.29 "/>
 </g>
</svg>
