<?xml version="1.0" encoding="UTF-8"?>
<!DOCTYPE svg PUBLIC "-//W3C//DTD SVG 1.1//EN" "http://www.w3.org/Graphics/SVG/1.1/DTD/svg11.dtd">
<!-- Creator: CorelDRAW -->
<svg xmlns="http://www.w3.org/2000/svg" xml:space="preserve" width="210mm" height="210mm" version="1.1" style="shape-rendering:geometricPrecision; text-rendering:geometricPrecision; image-rendering:optimizeQuality; fill-rule:evenodd; clip-rule:evenodd"
viewBox="0 0 21000 21000"
 xmlns:xlink="http://www.w3.org/1999/xlink"
 xmlns:xodm="http://www.corel.com/coreldraw/odm/2003">
 <defs>
  <style type="text/css">
   <![CDATA[
    .fil0 {fill:white}
    .fil2 {fill:url(#id0)}
    .fil3 {fill:url(#id1)}
    .fil1 {fill:url(#id2)}
    .fil4 {fill:url(#id3)}
   ]]>
  </style>
  <linearGradient id="id0" gradientUnits="userSpaceOnUse" x1="16026.54" y1="3700.15" x2="10477.75" y2="8719.87">
   <stop offset="0" style="stop-opacity:1; stop-color:#EA400F"/>
   <stop offset="1" style="stop-opacity:1; stop-color:#FB6803"/>
  </linearGradient>
  <linearGradient id="id1" gradientUnits="userSpaceOnUse" x1="14600.32" y1="12546.89" x2="10543.56" y2="13260.91">
   <stop offset="0" style="stop-opacity:1; stop-color:#7A14D5"/>
   <stop offset="1" style="stop-opacity:1; stop-color:#B022DD"/>
  </linearGradient>
  <linearGradient id="id2" gradientUnits="userSpaceOnUse" xlink:href="#id0" x1="9910.96" y1="9553.39" x2="6916.68" y2="6667.39">
  </linearGradient>
  <linearGradient id="id3" gradientUnits="userSpaceOnUse" xlink:href="#id1" x1="10657.26" y1="17080.69" x2="4809.96" y2="12527.86">
  </linearGradient>
 </defs>
 <g id="Camada_x0020_1">
  <metadata id="CorelCorpID_0Corel-Layer"/>
  <g id="_2009884767744">
   <rect class="fil0" x="428.39" y="442.64" width="20128.94" height="20128.94" rx="4044.71" ry="4044.71"/>
   <g>
    <path class="fil1" d="M9738.9 10212.21l733.16 -1269.86 -1693.83 -2933.78c-807.67,0 -1616.23,0.42 -2422.65,0.62l2067.23 3579.57c228.99,396.51 622.11,623.45 1079.99,623.45 78.7,0 157.41,0 236.1,0z"/>
    <path class="fil2" d="M10472.06 8942.35l-733.16 1269.86c567.36,0 1134.69,0 1702.05,0 457.88,0 851.73,-226.54 1079.99,-623.45l4244.45 -7380.32 -2422.65 -0.62 -3870.68 6734.53z"/>
    <path class="fil3" d="M11246.85 10802.08l-733.16 1269.86 1693.84 2933.78c807.67,0 1616.22,-0.42 2422.65,-0.62l-2067.23 -3579.57c-229,-396.51 -622.12,-623.45 -1080,-623.45 -78.69,0 -157.4,0 -236.1,0z"/>
    <path class="fil4" d="M10513.69 12071.94l733.16 -1269.86c-567.35,0 -1134.69,0 -1702.04,0 -457.88,0 -851.73,226.54 -1079.99,623.45l-4244.45 7380.32 2422.65 0.62 3870.67 -6734.53z"/>
   </g>
  </g>
 </g>
</svg>
