<?xml version="1.0" encoding="UTF-8"?>
<svg xmlns="http://www.w3.org/2000/svg" viewBox="0 0 21000 21000" width="512" height="512">
  <!-- top swoosh (laranja) -->
  <path fill="#FB6803" data-half="top" d="M9738.9 10212.21l733.16 -1269.86 -1693.83 -2933.78c-807.67,0 -1616.23,0.42 -2422.65,0.62l2067.23 3579.57c228.99,396.51 622.11,623.45 1079.99,623.45 78.7,0 157.41,0 236.1,0z"/>
  <path fill="#FB6803" data-half="top" d="M10472.06 8942.35l-733.16 1269.86c567.36,0 1134.69,0 1702.05,0 457.88,0 851.73,-226.54 1079.99,-623.45l4244.45 -7380.32 -2422.65 -0.62 -3870.68 6734.53z"/>
  <!-- bottom swoosh (roxo) -->
  <path fill="#B022DD" data-half="bottom" d="M11246.85 10802.08l-733.16 1269.86 1693.84 2933.78c807.67,0 1616.22,-0.42 2422.65,-0.62l-2067.23 -3579.57c-229,-396.51 -622.12,-623.45 -1080,-623.45 -78.69,0 -157.4,0 -236.1,0z"/>
  <path fill="#B022DD" data-half="bottom" d="M10513.69 12071.94l733.16 -1269.86c-567.35,0 -1134.69,0 -1702.04,0 -457.88,0 -851.73,226.54 -1079.99,623.45l-4244.45 7380.32 2422.65 0.62 3870.67 -6734.53z"/>
</svg>
